<?xml version="1.0" ?>
<!DOCTYPE svg  PUBLIC '-//W3C//DTD SVG 1.1//EN'  'http://www.w3.org/Graphics/SVG/1.1/DTD/svg11.dtd'>
<!-- Uploaded to: SVG Repo, www.svgrepo.com, Generator: SVG Repo Mixer Tools -->
<svg width="800px" height="800px" viewBox="0 0 50 50" enable-background="new 0 0 50 50" id="Layer_1" version="1.1" xml:space="preserve" xmlns="http://www.w3.org/2000/svg" xmlns:xlink="http://www.w3.org/1999/xlink">
<g>
<rect fill="#4E4C4D" height="28.59021" width="37.51397" x="6.24299" y="11.46645"/>
<path d="M41.94715,36.23013H8.05279c-3.89517,0-7.05282,3.15766-7.05282,7.05282v0.00002   c0,3.89516,3.15766,7.05282,7.05282,7.05282h33.89436c3.89517,0,7.05282-3.15766,7.05282-7.05282v-0.00002   C48.99997,39.38779,45.84232,36.23013,41.94715,36.23013z" fill="#656766"/>
<path d="M41.94715,17.9426H8.05279c-3.89517,0-7.05282,3.15766-7.05282,7.05282v0.00001   c0,3.89517,3.15766,7.05282,7.05282,7.05282h33.89436c3.89517,0,7.05282-3.15766,7.05282-7.05282v-0.00001   C48.99997,21.10026,45.84232,17.9426,41.94715,17.9426z" fill="#656766"/>
<path d="M41.94715-0.33579H8.05279c-3.89517,0-7.05282,3.15766-7.05282,7.05282v0.00001   c0,3.89517,3.15766,7.05282,7.05282,7.05282h33.89436c3.89517,0,7.05282-3.15766,7.05282-7.05282V6.71703   C48.99997,2.82187,45.84232-0.33579,41.94715-0.33579z" fill="#656766"/>
<g>
<circle cx="8.51297" cy="6.71704" fill="#EC6E62" r="2.71455"/>
<circle cx="16.22803" cy="6.71704" fill="#85BD57" r="2.71455"/>
</g>
<g>
<circle cx="8.51297" cy="24.99543" fill="#EC6E62" r="2.71455"/>
<circle cx="16.22803" cy="24.99543" fill="#85BD57" r="2.71455"/>
</g>
<g>
<circle cx="8.51297" cy="43.28296" fill="#EC6E62" r="2.71455"/>
<circle cx="16.22803" cy="43.28296" fill="#85BD57" r="2.71455"/>
</g>
<g>
<path d="M40.75756,38.94965l-8.11678,8.13217c-0.39971,0.38432-1.08381,0.38432-1.46813,0l-8.13217-8.13217    c-0.64573-0.64568-0.17677-1.78325,0.76864-1.78325h2.33669l-1.46822-12.62109c-0.06906-0.83779,0.86097-1.36046,1.52198-0.88391    l5.01145,3.75096c0.33056,0.24597,0.79942,0.24597,1.12997,0l5.01145-3.75096c0.66111-0.47655,1.59113,0.04612,1.52198,0.88391    L37.42169,37.1664h2.58261C40.94972,37.1664,41.40324,38.30397,40.75756,38.94965z" fill="#53B1E2"/>
<path d="M31.90961,44.90113c-0.66329,0-1.20439-0.54109-1.20439-1.20438s0.5411-1.20439,1.20439-1.20439    s1.18691,0.5411,1.18691,1.20439S32.5729,44.90113,31.90961,44.90113z" fill="#FFFFFF"/>
<path d="M31.67596,39.71561v-0.75535c-0.94545-0.09663-1.79363-0.4724-2.54582-1.12796l0.75534-0.9006    c0.57977,0.50398,1.17597,0.80397,1.79047,0.9006v-2.00773c-0.77998-0.18631-1.35028-0.43073-1.71279-0.7345    c-0.36188-0.30378-0.54314-0.75345-0.54314-1.35028s0.20841-1.08502,0.62588-1.46395    c0.41746-0.37957,0.9606-0.58672,1.63006-0.62082v-0.51788h0.66187v0.52798c0.75914,0.05494,1.47659,0.31388,2.15236,0.77619    l-0.67261,0.95176c-0.45535-0.32399-0.9486-0.52419-1.47974-0.59998v1.94521h0.03094    c0.79324,0.18631,1.37617,0.4383,1.74879,0.75535c0.37262,0.31767,0.55893,0.77808,0.55893,1.38122    c0,0.60377-0.2141,1.09513-0.64166,1.47469c-0.42757,0.37957-0.99345,0.58609-1.697,0.62082v0.74524H31.67596z M30.94651,33.03623    c-0.1762,0.15536-0.26399,0.34799-0.26399,0.57914s0.06884,0.4143,0.20652,0.54882    c0.13831,0.13453,0.40041,0.26336,0.78692,0.38778v-1.78984C31.36523,32.78929,31.12208,32.88086,30.94651,33.03623z     M33.12413,37.57335c0.19326-0.15852,0.28989-0.35872,0.28989-0.59998s-0.07579-0.43262-0.22736-0.57409    c-0.15221-0.14147-0.43451-0.27473-0.84882-0.39851v1.86247C32.6694,37.82851,32.9315,37.73251,33.12413,37.57335z" fill="#FFFFFF"/>
</g>
</g>
</svg>